# xmcd
#
# Track frame offsets: 
#        150
#        28684
#        49558
#        71314
#        100834
#        128027
#        152659
#        180104
#        208242
#        230509
#        248555
#        266196
#        292916
#        306584
#
# Disc length: 4234 seconds
#
# Revision: 0
# Processed by: cddbd v1.5.2PL0 Copyright (c) Steve Scherf et al.
# Submitted via: ExactAudioCopy v0.99pb4
#
DISCID=bc10880e
DTITLE=Various Artist - Insights of the Profane
DYEAR=1999
DGENRE=Metal
TTITLE0=Anapthergal - Apostatic Sonorities
TTITLE1=Abigor - Utopia Consumed
TTITLE2=Baal - Extinction
TTITLE3=Azaghal - Inhimillisyyden Tuollapuolen (Beyond Humanity)
TTITLE4=Subklinik - Dawn Of Desekration (Edited Version)
TTITLE5=Archaean Harmony - Metabolism Under The Ascending Moon
TTITLE6=Murderous Vision - Awaken Dommiel
TTITLE7=Judas Iscariot - The Black Clouds Roll Under The Parapet Of Th
TTITLE7=e Sky
TTITLE8=Ontario Blue - A Sea Of Dust
TTITLE9=Myrmidon - Blasphemous Torture
TTITLE10=Darkness Enshroud - Totentanz
TTITLE11=GoatWAR - Agony Of Human Suffering
TTITLE12=Veinke - Insights Of The Profane Outro
TTITLE13=Allfather - ...And With God Bereft
EXTD=
EXTT0=
EXTT1=
EXTT2=
EXTT3=
EXTT4=
EXTT5=
EXTT6=
EXTT7=
EXTT8=
EXTT9=
EXTT10=
EXTT11=
EXTT12=
EXTT13=
PLAYORDER=
